<svg data-v-fde0c5aa="" xmlns="http://www.w3.org/2000/svg" viewBox="0 0 300 300" class="iconLeftSlogan"><defs data-v-fde0c5aa=""></defs><defs data-v-fde0c5aa=""></defs><g data-v-fde0c5aa="" id="0347699a-f631-4846-9936-e44f5b34201a" fill="#090A35" transform="matrix(3.3759474584595206,0,0,3.3759474584595206,129.75593563931145,113.76888750727201)"><path d="M0.76 7.22L0.76 7.22L0.69 4.58Q0.69 3.95 0.55 3.58Q0.41 3.22 0.41 3.19L0.41 3.19Q0.41 2.88 1.35 2.72Q2.30 2.55 2.79 2.55Q3.29 2.55 3.33 2.79L3.33 2.79Q4.21 6.72 4.82 8.25L4.82 8.25Q4.89 8.41 4.96 8.41Q5.04 8.41 5.10 8.29L5.10 8.29Q6.03 5.64 6.75 3.05L6.75 3.05Q6.80 2.88 7.03 2.79Q7.25 2.70 7.81 2.62Q8.36 2.53 8.90 2.53Q9.45 2.53 9.45 2.76L9.45 2.76Q9.45 2.77 9.41 2.97Q9.37 3.18 9.32 3.47Q9.28 3.77 9.23 4.19L9.23 4.19Q9.10 5.15 9.06 6.40Q9.03 7.66 9.03 8.92L9.03 8.92L9.06 10.39Q9.06 11.40 9.19 11.82Q9.32 12.25 9.32 12.31Q9.32 12.38 9.23 12.46L9.23 12.46Q8.79 12.81 7.91 12.81L7.91 12.81Q7.35 12.81 7.28 12.43L7.28 12.43Q7.24 12.24 7.24 11.81Q7.24 11.38 7.32 9.18Q7.41 6.99 7.41 5.98Q7.41 4.98 7.29 4.98L7.29 4.98Q7.28 4.98 7.28 4.99Q7.28 5.00 7.24 5.01Q7.20 5.03 7.02 5.45Q6.85 5.87 6.33 7.52Q5.81 9.17 5.39 10.61Q4.97 12.04 4.93 12.15L4.93 12.15Q4.77 12.53 4.34 12.53L4.34 12.53Q4.13 12.53 4.00 12.38L4.00 12.38Q3.56 10.30 2.41 6.45L2.41 6.45L2.02 5.18Q1.99 5.11 1.96 5.11L1.96 5.11Q1.89 5.11 1.86 5.21L1.86 5.21Q1.81 6.12 1.81 8.79Q1.81 11.45 2.00 12.15L2.00 12.15Q2.02 12.18 2.02 12.24L2.02 12.24Q2.02 12.53 1.55 12.66Q1.09 12.80 0.72 12.80Q0.35 12.80 0.35 12.63L0.35 12.63Q0.35 12.61 0.42 12.40L0.42 12.40Q0.63 11.69 0.69 10.33Q0.76 8.97 0.76 7.22ZM14.83 8.47L14.83 8.47L14.80 10.26Q14.80 12.12 15.20 12.50L15.20 12.50Q15.26 12.56 15.26 12.63L15.26 12.63Q15.26 12.84 14.36 12.84Q13.45 12.84 13.40 12.31L13.40 12.31Q13.38 12.18 13.38 11.79L13.38 11.79L13.44 9.55Q13.44 9.45 13.33 9.45L13.33 9.45Q12.66 9.45 12.07 9.83Q11.48 10.21 11.48 10.79L11.48 10.79Q11.48 11.10 11.65 11.31Q11.82 11.52 12.06 11.52Q12.31 11.52 12.47 11.42Q12.63 11.33 12.66 11.31L12.66 11.31Q12.89 11.34 12.89 11.81Q12.89 12.28 12.46 12.56Q12.03 12.85 11.55 12.85Q11.07 12.85 10.73 12.68Q10.39 12.52 10.23 12.31Q10.08 12.10 9.98 11.83L9.98 11.83Q9.88 11.51 9.88 11.27L9.88 11.27Q9.88 10.29 10.50 9.70Q11.12 9.11 12.08 8.86L12.08 8.86Q13.36 8.61 13.41 8.40L13.41 8.40Q13.45 8.25 13.45 7.88L13.45 7.88Q13.45 7.14 12.70 7.14L12.70 7.14Q12.38 7.14 12.12 7.34Q11.87 7.55 11.87 7.85L11.87 7.85L11.96 8.19Q11.93 8.43 11.45 8.47L11.45 8.47L11.30 8.48Q10.88 8.48 10.63 8.27Q10.39 8.06 10.39 7.71L10.39 7.71Q10.39 7.49 10.54 7.22Q10.68 6.94 10.91 6.78Q11.13 6.61 11.60 6.47Q12.07 6.34 12.50 6.34Q12.94 6.34 13.17 6.37Q13.41 6.40 13.82 6.50Q14.24 6.61 14.51 6.90Q14.78 7.20 14.80 7.52Q14.83 7.85 14.83 8.47ZM20.02 7.85L19.95 8.92L20.01 9.41Q20.01 9.67 19.50 9.67L19.50 9.67Q18.48 9.67 18.48 8.90L18.48 8.90Q18.48 8.72 18.58 8.40Q18.68 8.08 18.68 7.84Q18.68 7.60 18.54 7.43Q18.40 7.25 18.13 7.25Q17.86 7.25 17.68 7.44Q17.49 7.63 17.44 7.83L17.44 7.83L17.39 8.02Q17.30 8.46 17.30 9.47Q17.30 10.49 17.33 11.07Q17.36 11.65 17.39 11.87Q17.42 12.08 17.42 12.12L17.42 12.12Q17.42 12.47 16.98 12.69Q16.55 12.91 16.11 12.91Q15.68 12.91 15.68 12.73L15.68 12.73L15.75 12.29Q15.95 11.07 15.95 9.11Q15.95 7.15 15.81 6.45L15.81 6.45Q15.81 6.29 16.10 6.29L16.10 6.29Q16.86 6.29 17.11 6.80L17.11 6.80Q17.12 6.86 17.16 6.86Q17.19 6.86 17.35 6.73L17.35 6.73Q17.81 6.36 18.44 6.36L18.44 6.36Q18.83 6.36 19.22 6.51L19.22 6.51Q20.02 6.83 20.02 7.85L20.02 7.85ZM22.09 5.18L22.09 5.18L21.76 5.17Q21.38 5.17 21.27 5.35L21.27 5.35Q21.24 5.39 21.20 5.39L21.20 5.39Q21.01 5.39 21.01 4.77Q21.01 4.14 21.20 3.98Q21.39 3.81 21.86 3.81Q22.33 3.81 22.50 3.97Q22.67 4.13 22.67 4.51Q22.67 4.89 22.54 5.03Q22.41 5.18 22.09 5.18ZM20.97 12.25L20.97 12.25L21.13 8.99Q21.13 7.83 20.86 7.41L20.86 7.41Q20.78 7.27 20.66 7.20L20.66 7.20Q20.58 7.17 20.58 7.08L20.58 7.08Q20.58 6.83 21.29 6.59Q22.01 6.36 22.34 6.36Q22.67 6.36 22.68 6.52L22.68 6.52Q22.68 6.80 22.60 8.11Q22.53 9.42 22.53 10.86Q22.53 12.31 22.69 12.66L22.69 12.66Q22.74 12.73 22.74 12.80L22.74 12.80Q22.74 12.98 22.20 12.98Q21.67 12.98 21.11 12.70L21.11 12.70Q20.97 12.63 20.97 12.25ZM23.59 12.77L23.59 12.77Q23.84 11.26 23.84 9.14Q23.84 7.03 23.72 6.40L23.72 6.40Q23.72 6.22 24.14 6.22L24.14 6.22Q24.78 6.22 24.99 6.71L24.99 6.71Q25.00 6.75 25.06 6.75Q25.12 6.75 25.14 6.72L25.14 6.72Q25.58 6.27 26.49 6.27Q27.40 6.27 27.93 6.73Q28.46 7.20 28.46 8.08L28.46 8.08Q28.46 8.61 28.37 9.59Q28.28 10.57 28.28 11.05L28.28 11.05Q28.28 12.18 28.66 12.68L28.66 12.68Q28.71 12.75 28.71 12.82L28.71 12.82Q28.71 13.01 28.32 13.01L28.32 13.01Q26.59 13.01 26.59 11.47L26.59 11.47Q26.59 10.88 26.85 9.83Q27.12 8.78 27.12 8.23L27.12 8.23Q27.12 7.11 26.19 7.11L26.19 7.11Q25.75 7.11 25.52 7.38Q25.28 7.64 25.26 7.99Q25.23 8.33 25.23 9.28L25.23 9.28Q25.23 10.74 25.33 11.82L25.33 11.82L25.35 12.12Q25.35 12.52 24.84 12.73Q24.33 12.95 23.96 12.95Q23.59 12.95 23.59 12.77ZM30.51 9.11L30.51 9.11L30.52 9.46Q30.52 9.55 30.63 9.55L30.63 9.55Q31.08 9.51 31.42 9.32Q31.75 9.13 31.92 8.89L31.92 8.89Q32.26 8.37 32.28 7.99L32.28 7.99L32.30 7.83Q32.30 7.07 31.70 7.07L31.70 7.07Q31.25 7.07 30.97 7.46L30.97 7.46Q30.51 8.08 30.51 9.11ZM33.56 10.98L33.56 10.98Q33.56 11.51 33.34 11.91Q33.12 12.31 32.85 12.49Q32.58 12.68 32.21 12.80L32.21 12.80Q31.75 12.94 31.33 12.94L31.33 12.94Q30.16 12.94 29.60 12.05Q29.04 11.17 29.04 9.81Q29.04 8.44 29.73 7.38Q30.42 6.31 31.81 6.31L31.81 6.31Q33.07 6.31 33.52 7.20L33.52 7.20Q33.70 7.53 33.70 7.83Q33.70 8.13 33.67 8.31Q33.64 8.48 33.47 8.83Q33.31 9.18 33.03 9.46Q32.75 9.74 32.14 10.00Q31.54 10.25 30.73 10.33L30.73 10.33Q30.62 10.33 30.62 10.43L30.62 10.43Q30.62 10.56 30.71 10.80Q30.80 11.05 30.91 11.21L30.91 11.21Q31.22 11.61 31.82 11.61L31.82 11.61Q32.42 11.61 32.84 11.21L32.84 11.21Q33.07 11.00 33.21 10.70L33.21 10.70Q33.26 10.58 33.36 10.58Q33.45 10.58 33.50 10.74Q33.56 10.89 33.56 10.98ZM38.58 10.75L38.58 10.75Q38.58 11.35 38.35 11.80Q38.12 12.25 37.83 12.46Q37.53 12.67 37.13 12.80L37.13 12.80Q36.60 12.96 36.16 12.96L36.16 12.96Q35.25 12.96 34.65 12.61Q34.05 12.25 34.05 11.47L34.05 11.47Q34.05 11.00 34.30 10.71L34.30 10.71Q34.69 10.28 35.24 10.28L35.24 10.28Q35.41 10.28 35.41 10.43L35.41 10.43Q35.41 10.44 35.34 10.65Q35.28 10.85 35.28 11.16Q35.28 11.47 35.52 11.70Q35.77 11.94 36.12 11.94Q36.47 11.94 36.68 11.82Q36.89 11.70 36.97 11.52L36.97 11.52Q37.10 11.27 37.10 11.05L37.10 11.05Q37.10 10.64 36.69 10.35Q36.29 10.05 35.80 9.88Q35.31 9.72 34.90 9.32Q34.50 8.93 34.50 8.34L34.50 8.34Q34.50 7.34 35.13 6.83Q35.77 6.33 36.86 6.33L36.86 6.33Q37.34 6.33 37.86 6.46Q38.39 6.59 38.39 6.91Q38.39 7.22 38.28 7.49Q38.18 7.76 38.02 7.76L38.02 7.76Q37.94 7.76 37.91 7.69Q37.88 7.63 37.81 7.55Q37.74 7.46 37.48 7.33Q37.21 7.20 37.02 7.20Q36.83 7.20 36.77 7.20Q36.71 7.21 36.55 7.25Q36.40 7.28 36.27 7.35L36.27 7.35Q35.95 7.53 35.95 7.88L35.95 7.88Q35.95 8.11 36.05 8.21Q36.15 8.32 36.20 8.37Q36.26 8.43 36.40 8.50Q36.54 8.58 36.60 8.61Q36.65 8.64 36.85 8.73Q37.04 8.82 37.10 8.85L37.10 8.85Q38.58 9.55 38.58 10.75Z"></path></g><defs data-v-fde0c5aa=""><linearGradient data-v-fde0c5aa="" gradientTransform="rotate(25)" id="7b0c78cb-0c64-4bfd-a4d5-fa281e91bc4b" x1="0%" y1="0%" x2="100%" y2="0%"><stop data-v-fde0c5aa="" offset="0%" stop-color="#181B80" stop-opacity="1"></stop><stop data-v-fde0c5aa="" offset="100%" stop-color="#181ED9" stop-opacity="1"></stop></linearGradient></defs><g data-v-fde0c5aa="" id="b30a198b-25ed-486f-90d8-c0456a4ba984" stroke="none" fill="url(#7b0c78cb-0c64-4bfd-a4d5-fa281e91bc4b)" transform="matrix(0.008659602935916737,0,0,0.008659602935916737,35.67019853204163,106.70010160307845)"><path d="M2415 4754c69 0 124 56 124 124s-55 123-124 123c-68 0-123-55-123-123s55-124 123-124m4260-2547c-26-119-20-167-85-281-140-248-467-395-760-281-308 119-432 494-302 719 165 287 596 241 652-85 26-156-62-223-159-192-135 43-29 205-156 217-59 5-104-31-125-64-25-40-20-106-7-156 77-309 519-309 660-8 121 258-32 612-335 699-498 144-1000-375-778-934 74-185 192-310 350-396 515-282 1258 127 1293 771 12 245-74 515-185 676-187 272-375 501-436 867-14 88-37 318-8 396 43 112 234 101 236-46 3-150-5-259 33-401 131-492 446-599 579-1158 85-355-14-741-235-1002-22-25-26-33-52-57-19-17-36-35-54-54-40-41-75-65-116-100-87-57-161-105-273-149-51-20-106-37-161-49-35-8-162-20-179-30-52 9-114 1-168 6-818 74-1144 995-764 1529 87 122 210 245 374 317 590 262 1206-139 1161-754m2144 3541c357 115 565 349 645 609 49 162 47 333 1 492-47 159-139 307-270 422-262 229-679 331-1209 136-393 347-925 555-1617 555-1607 0-2357-1127-2487-2508l-578 6 187 560v1942l-2070-755c561 831 1420 1420 2408 1641 1053 235 2157 29 3049-568 50-37 120-31 163 14 55 59 41 152-28 192-2179 1457-5096 539-6137-1752-260-572-386-1190-375-1806h-1l1-1c6-366 60-731 163-1087C1197 1995 2977 659 5028 826h3c64 5 113 58 113 123 0 68-55 123-123 123-4 0-8 0-12-1-527-43-1041 21-1520 174v1895l497 554c22 25 20 64-5 87-12 10-27 15-41 15h-261c-11 47-36 89-68 122-47 47-112 76-184 76-71 0-136-29-183-76-33-33-57-75-69-122h-260c-35 0-62-27-62-61 0-18 8-34 20-45l493-550V1287c-299 107-583 249-847 422v465l497 554c23 26 21 65-5 87-11 11-26 16-41 16h-260c-12 47-36 89-69 122-47 47-112 76-183 76-72 0-137-29-184-76-33-33-57-75-68-122h-261c-34 0-62-28-62-62 0-17 8-34 20-45l493-550v-380c-729 521-1257 1274-1500 2127-77 272-124 549-142 827 487-279 1238-413 2173-413l336 1003 610-7q-12-163.5-12-330c0-272 614-506 1495-609l5-1c130-18 250-105 303-172 174-221 178-482 8-698-60-49-83-100-197-148-534-224-722 415-336 560 160 61 232-25 198-103-41-92-169-7-207-139-17-59 9-103 40-129 38-32 90-29 146-25 152 49 258 126 273 300 15 177-103 307-232 346-267 81-615-127-663-463-48-341 210-616 514-636 369-25 625 197 744 416 159 295 93 657-92 864-41 50-89 94-142 133-91 66-199 114-324 138-277 32-526 77-735 133-333 88-541 171-551 229 16 78 94 149 218 211 417-184 1176-307 2043-307 868 0 1627 124 2044 307 124-62 202-133 218-211-10-58-218-141-551-229-74-20-153-39-237-55l1-1c-21-6-42-12-62-18h-1c-48-15-96-31-145-51l-3-1-3-2-5-2h-2c-68-28-133-59-196-96-19-11-37-23-55-35l-4-2c-34-22-69-46-104-72-66-50-93-76-142-143-430-592-157-1433 539-1505 46-5 100 2 145-8 36 22 393 17 627 372 25 38 50 85 70 133 132 320 70 681-207 869-181 123-435 127-624 9-198-123-354-410-243-692 23-58 51-82 85-118 129-136 411-134 535 88 47 84 67 245-6 312-87 79-219 10-201-126 19-139-163-167-193-38-56 234 143 441 372 412 219-29 337-238 293-493-36-215-187-374-360-440-418-161-863 183-782 715 37 248 160 400 288 511 104 92 206 131 318 159 664 120 1100 322 1100 551 0 256-20 506-59 747m-973 1455v-275c0-40 19-76 49-98 5-4 10-8 16-10l5-3 2-1 3-1 308-141c31-14 67 0 82 30 14 31 0 68-31 82l-174 79c150 77 268 80 343 44 29-15 50-35 62-58 11-22 15-47 9-74-14-69-85-144-230-193l-6-2-7-2c-107-36-298-100-385-278-98 23-203 44-314 61-649 105-1483 116-2172 34-504-59-934-172-1167-338 100 370 259 701 485 967 359 425 898 690 1645 690 639 0 1124-193 1476-514zm8-1018c-5-30-8-61-8-95 0-54 34-99 82-116l590-270c20-9 40-12 61-11 17-108 30-220 39-333-219 142-560 244-962 309-390 63-839 94-1287 94-447 0-896-31-1286-94-402-65-743-167-962-309 12 155 32 306 60 452 77 231 590 386 1240 463 679 81 1500 70 2138-33 103-17 202-36 295-57m1375 244c-68-223-273-420-643-486l-481 220c41 114 177 159 250 184l7 2 7 2c239 81 362 231 392 378 16 82 5 163-32 234-35 69-94 128-171 166-116 57-278 69-466-2v56c422 149 744 75 941-97 96-83 162-191 196-305 34-115 35-238 0-352M6029 4341c111-4 225-6 340-6 227 0 446 8 654 23 93 114 202 204 320 276-297-34-626-53-974-53-201 0-397 7-583 19l4-4c97-70 176-157 239-255m-2227-668-375-418-375 418h750m-279 158c11-10 19-22 26-35h-243c6 13 15 25 25 35 25 25 59 40 96 40 38 0 72-15 96-40M2198 2708h635l-375-419-375 419zm356 158c10-10 19-22 25-35h-243c7 13 15 25 26 35 24 24 58 40 96 40 37 0 71-16 96-40M756 5275c10 138 27 276 51 413l2438 891v-395zm79 554c31 145 70 288 118 430l2292 837v-386zm172 580c28 75 60 149 93 223 37 81 77 161 119 239l2026 740v-385zM764 5016l2429 887-442-1320c-454 9-981 50-1436 192-201 63-365 149-551 241m963-138c68 0 123 55 123 123s-55 123-123 123-123-55-123-123 55-123 123-123m754 274c68 0 123 56 123 123 0 68-55 124-123 124s-123-56-123-124c0-67 55-123 123-123" style="fill:#000"></path></g><defs data-v-fde0c5aa=""></defs><g data-v-fde0c5aa="" id="d000540f-8c5a-4414-b783-dfbd3c4120b5" fill="#090A35" transform="matrix(0.29529018351057956,0,0,0.29529018351057956,130.90503541025097,167.58366104912406)"><path d="M3.22 10.50L5.07 10.50L5.07 2.38L8.18 2.38L8.18 0.70C5.33 0.70 2.94 0.70 0.11 0.70L0.11 2.38L3.22 2.38ZM24.08 10.50L26.10 10.50L21.70 0.70L19.68 0.70L15.29 10.50L17.29 10.50L18.13 8.65L23.25 8.65ZM22.51 6.93L18.87 6.93L20.69 2.76ZM41.30 2.31C40.56 0.80 38.98 0.36 37.45 0.36C35.64 0.38 33.66 1.20 33.66 3.22C33.66 5.42 35.50 5.95 37.51 6.19C38.81 6.33 39.77 6.71 39.77 7.63C39.77 8.69 38.68 9.10 37.52 9.10C36.33 9.10 35.20 8.62 34.76 7.55L33.22 8.34C33.95 10.14 35.49 10.75 37.49 10.75C39.68 10.75 41.61 9.81 41.61 7.63C41.61 5.29 39.70 4.76 37.66 4.51C36.48 4.37 35.48 4.13 35.48 3.28C35.48 2.55 36.13 1.97 37.51 1.97C38.57 1.97 39.49 2.51 39.83 3.07ZM52.57 10.50L54.42 10.50L54.42 2.38L57.53 2.38L57.53 0.70C54.68 0.70 52.29 0.70 49.46 0.70L49.46 2.38L52.57 2.38ZM72.95 8.68L67.45 8.68L67.45 6.47L72.76 6.47L72.76 4.75L67.45 4.75L67.45 2.49L72.95 2.49L72.95 0.70L65.62 0.70C65.62 3.96 65.62 7.24 65.62 10.50L72.95 10.50ZM93.74 10.50L95.59 10.50L95.59 2.38L98.70 2.38L98.70 0.70C95.86 0.70 93.46 0.70 90.64 0.70L90.64 2.38L93.74 2.38ZM115.33 10.51L115.33 0.71L113.50 0.71L113.50 4.84L108.68 4.84L108.68 0.71L106.83 0.71L106.83 10.51L108.68 10.51L108.68 6.55L113.50 6.55L113.50 10.51ZM131.38 8.68L125.87 8.68L125.87 6.47L131.18 6.47L131.18 4.75L125.87 4.75L125.87 2.49L131.38 2.49L131.38 0.70L124.04 0.70C124.04 3.96 124.04 7.24 124.04 10.50L131.38 10.50ZM154.24 0.50C150.85 0.50 149.20 3.09 149.20 5.67C149.20 8.25 150.79 10.72 154.24 10.72C157.68 10.72 159.24 8.19 159.26 5.66C159.29 3.09 157.61 0.50 154.24 0.50ZM154.24 2.18C156.55 2.18 157.47 4.03 157.44 5.68C157.42 7.29 156.55 9.03 154.24 9.03C151.93 9.03 151.06 7.31 151.02 5.70C150.98 4.05 151.93 2.18 154.24 2.18ZM175.00 7.99C174.36 8.64 173.39 8.99 172.54 8.99C170.11 8.99 169.18 7.29 169.16 5.67C169.15 4.03 170.17 2.27 172.54 2.27C173.39 2.27 174.26 2.56 174.90 3.19L176.13 2.00C175.13 1.01 173.87 0.50 172.54 0.50C168.99 0.50 167.33 3.11 167.34 5.67C167.36 8.22 168.90 10.72 172.54 10.72C173.95 10.72 175.25 10.26 176.26 9.27ZM191.60 8.68L186.10 8.68L186.10 6.47L191.41 6.47L191.41 4.75L186.10 4.75L186.10 2.49L191.60 2.49L191.60 0.70L184.27 0.70C184.27 3.96 184.27 7.24 184.27 10.50L191.60 10.50ZM207.82 10.50L209.83 10.50L205.44 0.70L203.42 0.70L199.02 10.50L201.03 10.50L201.87 8.65L206.99 8.65ZM206.25 6.93L202.61 6.93L204.43 2.76ZM224.11 6.78L219.31 0.70L217.81 0.70L217.81 10.50L219.66 10.50L219.66 3.89L224.81 10.51L224.81 10.50L225.96 10.50L225.96 0.69L224.11 0.69ZM236.56 9.77C236.56 8.50 234.57 8.44 234.57 9.73C234.57 10.16 234.84 10.42 235.23 10.49L234.96 11.87L235.93 11.87C236.57 9.90 236.56 9.94 236.56 9.77ZM256.82 10.50L256.82 6.87L261.73 6.87L261.73 5.17L256.82 5.17L256.82 2.49L262.01 2.49L262.01 0.71L254.97 0.71L254.97 10.50ZM277.59 8.68L272.09 8.68L272.09 6.47L277.40 6.47L277.40 4.75L272.09 4.75L272.09 2.49L277.59 2.49L277.59 0.70L270.26 0.70C270.26 3.96 270.26 7.24 270.26 10.50L277.59 10.50ZM293.33 8.68L287.83 8.68L287.83 6.47L293.13 6.47L293.13 4.75L287.83 4.75L287.83 2.49L293.33 2.49L293.33 0.70L285.99 0.70C285.99 3.96 285.99 7.24 285.99 10.50L293.33 10.50ZM301.76 0.70L301.76 10.50L308.64 10.50L308.64 8.79L303.60 8.79L303.60 0.70ZM329.31 10.50L331.16 10.50L331.16 2.38L334.26 2.38L334.26 0.70C331.42 0.70 329.03 0.70 326.20 0.70L326.20 2.38L329.31 2.38ZM350.90 10.51L350.90 0.71L349.06 0.71L349.06 4.84L344.25 4.84L344.25 0.71L342.40 0.71L342.40 10.51L344.25 10.51L344.25 6.55L349.06 6.55L349.06 10.51ZM366.94 8.68L361.44 8.68L361.44 6.47L366.74 6.47L366.74 4.75L361.44 4.75L361.44 2.49L366.94 2.49L366.94 0.70L359.60 0.70C359.60 3.96 359.60 7.24 359.60 10.50L366.94 10.50ZM394.59 0.70L392.52 0.70L389.55 8.33L386.60 0.70L384.52 0.70L388.60 10.54L390.52 10.54ZM404.57 10.50L404.57 0.70L402.74 0.70L402.74 10.50ZM415.07 6.26L417.90 6.26C418.66 6.26 419.73 6.72 419.73 7.60C419.73 8.53 418.66 8.78 417.90 8.78L415.07 8.78ZM415.07 2.38L417.90 2.38C419.08 2.38 419.44 3.14 419.44 3.58C419.44 4.14 419.06 4.63 417.90 4.63L415.07 4.63ZM417.90 0.70C416.35 0.70 414.79 0.70 413.25 0.70L413.25 10.50C414.81 10.50 416.35 10.50 417.90 10.50C419.93 10.50 421.57 9.80 421.57 7.62C421.57 7 421.15 5.78 420.00 5.43C420.91 5.03 421.27 4.30 421.27 3.54C421.27 1.57 419.83 0.70 417.90 0.70ZM437.18 8.68L431.68 8.68L431.68 6.47L436.98 6.47L436.98 4.75L431.68 4.75L431.68 2.49L437.18 2.49L437.18 0.70L429.84 0.70C429.84 3.96 429.84 7.24 429.84 10.50L437.18 10.50Z"></path></g></svg>