<?xml version="1.0" encoding="UTF-8"?>
<svg xmlns="http://www.w3.org/2000/svg" xmlns:xlink="http://www.w3.org/1999/xlink" width="2000px" height="2000px" viewBox="0 0 2000 2000" preserveAspectRatio="xMidYMid meet" version="1.1">
<g id="surface1">
<path style=" stroke:none;fill-rule:nonzero;fill:rgb(3.529412%,3.921569%,20.784314%);fill-opacity:1;" d="M 882.136719 920.964844 L 880.574219 861.535156 C 880.574219 852.082031 879.53125 844.582031 877.421875 839.035156 C 875.3125 833.621094 874.269531 830.703125 874.269531 830.261719 C 874.269531 825.597656 881.328125 822.082031 895.417969 819.6875 C 909.6875 817.136719 920.46875 815.859375 927.839844 815.859375 C 935.339844 815.859375 939.375 817.65625 939.972656 821.25 C 953.175781 880.207031 964.375 921.171875 973.515625 944.140625 C 974.558594 946.535156 975.625 947.734375 976.667969 947.734375 C 977.863281 947.734375 978.933594 946.847656 979.816406 945.027344 C 993.777344 905.285156 1006.144531 865.964844 1016.953125 827.109375 C 1017.707031 824.558594 1019.816406 822.605469 1023.253906 821.25 C 1026.5625 819.894531 1032.421875 818.621094 1040.808594 817.421875 C 1049.0625 816.066406 1057.238281 815.390625 1065.339844 815.390625 C 1073.59375 815.390625 1077.734375 817.136719 1077.734375 820.574219 C 1077.734375 820.730469 1077.421875 822.292969 1076.824219 825.3125 C 1076.222656 828.464844 1075.546875 832.214844 1074.792969 836.5625 C 1074.191406 841.066406 1073.515625 846.457031 1072.761719 852.761719 C 1070.832031 867.160156 1069.558594 883.75 1068.957031 902.5 C 1068.488281 921.40625 1068.28125 940.3125 1068.28125 959.21875 L 1068.957031 992.292969 C 1068.957031 1007.449219 1069.921875 1018.175781 1071.875 1024.480469 C 1073.828125 1030.9375 1074.792969 1034.609375 1074.792969 1035.519531 C 1074.792969 1036.5625 1074.113281 1037.683594 1072.761719 1038.878906 C 1066.171875 1044.140625 1056.277344 1046.769531 1043.074219 1046.769531 C 1034.660156 1046.769531 1029.949219 1043.90625 1028.878906 1038.203125 C 1028.28125 1035.363281 1027.996094 1030.703125 1027.996094 1024.269531 C 1027.996094 1017.8125 1028.59375 998.074219 1029.792969 965.078125 C 1031.144531 932.214844 1031.824219 908.203125 1031.824219 893.046875 C 1031.824219 878.046875 1030.910156 870.546875 1029.113281 870.546875 C 1028.957031 870.546875 1028.878906 870.625 1028.878906 870.753906 C 1028.878906 870.910156 1028.59375 871.066406 1027.996094 871.222656 C 1027.394531 871.511719 1025.730469 874.816406 1023.046875 881.121094 C 1020.496094 887.421875 1015.3125 902.941406 1007.5 927.707031 C 999.714844 952.472656 992.65625 975.652344 986.355469 997.238281 C 980.050781 1018.699219 976.589844 1030.261719 975.988281 1031.902344 C 973.59375 1037.605469 969.167969 1040.46875 962.707031 1040.46875 C 959.558594 1040.46875 957.003906 1039.347656 955.050781 1037.082031 C 948.464844 1005.886719 936.535156 961.378906 919.269531 903.621094 L 910.496094 875.050781 C 910.050781 873.984375 909.609375 873.464844 909.140625 873.464844 C 908.097656 873.464844 907.34375 874.21875 906.902344 875.730469 C 906.144531 889.375 905.78125 916.222656 905.78125 956.300781 C 905.78125 996.199219 907.214844 1021.40625 910.050781 1031.902344 C 910.363281 1032.371094 910.496094 1033.046875 910.496094 1033.933594 C 910.496094 1038.28125 906.980469 1041.433594 899.921875 1043.386719 C 893.019531 1045.496094 886.796875 1046.535156 881.25 1046.535156 C 875.703125 1046.535156 872.917969 1045.261719 872.917969 1042.707031 C 872.917969 1042.421875 873.4375 1040.675781 874.503906 1037.527344 C 877.628906 1026.875 879.660156 1011.355469 880.574219 990.9375 C 881.613281 970.546875 882.136719 947.214844 882.136719 920.964844 Z M 1198.800781 949.089844 L 1198.125 989.375 C 1198.125 1017.292969 1201.144531 1034.089844 1207.136719 1039.792969 C 1208.046875 1040.675781 1208.488281 1041.667969 1208.488281 1042.707031 C 1208.488281 1045.859375 1201.746094 1047.449219 1188.230469 1047.449219 C 1174.582031 1047.449219 1167.371094 1043.464844 1166.613281 1035.519531 C 1166.328125 1033.566406 1166.171875 1029.660156 1166.171875 1023.800781 L 1167.527344 973.386719 C 1167.527344 971.902344 1166.691406 971.144531 1165.050781 971.144531 C 1155 971.144531 1145.546875 973.984375 1136.691406 979.6875 C 1127.839844 985.390625 1123.410156 992.605469 1123.410156 1001.300781 C 1123.410156 1005.964844 1124.6875 1009.84375 1127.238281 1012.996094 C 1129.792969 1016.144531 1132.863281 1017.734375 1136.457031 1017.734375 C 1140.207031 1017.734375 1143.28125 1016.980469 1145.703125 1015.46875 C 1148.097656 1014.140625 1149.53125 1013.308594 1149.972656 1012.996094 C 1153.410156 1013.464844 1155.15625 1017.214844 1155.15625 1024.269531 C 1155.15625 1031.300781 1151.925781 1036.925781 1145.46875 1041.144531 C 1139.011719 1045.496094 1132.1875 1047.65625 1125 1047.65625 C 1117.785156 1047.65625 1111.640625 1046.378906 1106.535156 1043.828125 C 1101.433594 1041.433594 1097.683594 1038.671875 1095.285156 1035.519531 C 1093.019531 1032.371094 1091.144531 1028.75 1089.660156 1024.714844 C 1088.152344 1019.894531 1087.394531 1015.703125 1087.394531 1012.109375 C 1087.394531 997.394531 1092.058594 985.625 1101.355469 976.769531 C 1110.652344 967.917969 1122.5 961.613281 1136.925781 957.863281 C 1156.121094 954.113281 1166.09375 950.652344 1166.847656 947.5 C 1167.449219 945.261719 1167.761719 941.355469 1167.761719 935.808594 C 1167.761719 924.714844 1162.136719 919.167969 1150.859375 919.167969 C 1146.066406 919.167969 1141.71875 920.652344 1137.8125 923.644531 C 1134.0625 926.796875 1132.1875 930.625 1132.1875 935.128906 L 1134.21875 942.785156 C 1133.777344 946.378906 1129.949219 948.488281 1122.734375 949.089844 L 1119.347656 949.324219 C 1113.046875 949.324219 1108.019531 947.734375 1104.269531 944.582031 C 1100.675781 941.433594 1098.878906 937.238281 1098.878906 931.980469 C 1098.878906 928.671875 1100 925 1102.265625 920.964844 C 1104.347656 916.746094 1107.136719 913.464844 1110.574219 911.042969 C 1113.878906 908.488281 1119.0625 906.171875 1126.121094 904.0625 C 1133.175781 902.136719 1139.921875 901.144531 1146.378906 901.144531 C 1152.96875 901.144531 1157.996094 901.378906 1161.457031 901.824219 C 1165.050781 902.265625 1169.921875 903.253906 1176.066406 904.738281 C 1182.371094 906.40625 1187.550781 909.402344 1191.613281 913.75 C 1195.652344 918.253906 1197.839844 922.917969 1198.125 927.707031 C 1198.59375 932.65625 1198.800781 939.792969 1198.800781 949.089844 Z M 1315.625 935.128906 L 1314.035156 959.21875 L 1315.390625 970.234375 C 1315.390625 974.140625 1311.5625 976.09375 1303.90625 976.09375 C 1288.621094 976.09375 1280.964844 970.3125 1280.964844 958.777344 C 1280.964844 956.066406 1281.71875 952.316406 1283.203125 947.5 C 1284.714844 942.707031 1285.46875 938.515625 1285.46875 934.894531 C 1285.46875 931.300781 1284.402344 928.230469 1282.316406 925.675781 C 1280.207031 922.96875 1277.136719 921.640625 1273.074219 921.640625 C 1269.035156 921.640625 1265.652344 923.046875 1262.941406 925.910156 C 1260.105469 928.75 1258.308594 931.691406 1257.550781 934.6875 L 1256.433594 938.957031 C 1255.078125 945.574219 1254.402344 956.433594 1254.402344 971.589844 C 1254.402344 986.902344 1254.636719 998.90625 1255.078125 1007.605469 C 1255.519531 1016.300781 1255.964844 1022.316406 1256.433594 1025.597656 C 1256.875 1028.75 1257.109375 1030.625 1257.109375 1031.222656 C 1257.109375 1036.484375 1253.800781 1040.753906 1247.1875 1044.0625 C 1240.753906 1047.371094 1234.21875 1049.011719 1227.605469 1049.011719 C 1221.171875 1049.011719 1217.941406 1047.65625 1217.941406 1044.972656 L 1219.503906 1035.050781 C 1222.527344 1016.746094 1224.011719 992.890625 1224.011719 963.488281 C 1224.011719 934.089844 1222.96875 914.140625 1220.859375 903.621094 C 1220.859375 901.222656 1223.046875 900.027344 1227.394531 900.027344 C 1238.800781 900.027344 1246.378906 903.855469 1250.128906 911.511719 C 1250.261719 912.394531 1250.652344 912.863281 1251.25 912.863281 C 1251.691406 912.863281 1253.125 911.875 1255.519531 909.921875 C 1262.421875 904.375 1270.597656 901.589844 1280.050781 901.589844 C 1285.910156 901.589844 1291.769531 902.734375 1297.605469 904.972656 C 1309.609375 909.765625 1315.625 919.816406 1315.625 935.128906 Z M 1362.214844 875.050781 L 1354.765625 874.816406 C 1349.0625 874.816406 1345.390625 876.171875 1343.75 878.878906 C 1343.308594 879.480469 1342.785156 879.765625 1342.160156 879.765625 C 1339.324219 879.765625 1337.890625 875.105469 1337.890625 865.808594 C 1337.890625 856.355469 1339.324219 850.441406 1342.160156 848.046875 C 1345.027344 845.496094 1349.972656 844.21875 1357.03125 844.21875 C 1364.089844 844.21875 1368.878906 845.417969 1371.433594 847.8125 C 1373.984375 850.207031 1375.261719 854.269531 1375.261719 859.972656 C 1375.261719 865.675781 1374.269531 869.558594 1372.34375 871.667969 C 1370.390625 873.90625 1367.003906 875.050781 1362.214844 875.050781 Z M 1337.003906 1034.167969 L 1340.597656 960.78125 C 1340.597656 943.386719 1338.566406 931.535156 1334.53125 925.234375 C 1333.332031 923.125 1331.824219 921.5625 1330.027344 920.496094 C 1328.828125 920.050781 1328.230469 919.167969 1328.230469 917.8125 C 1328.230469 914.0625 1333.542969 910.363281 1344.191406 906.769531 C 1355 903.332031 1362.890625 901.589844 1367.839844 901.589844 C 1372.785156 901.589844 1375.339844 902.8125 1375.496094 905.207031 C 1375.496094 909.402344 1374.871094 921.328125 1373.671875 940.988281 C 1372.628906 960.652344 1372.109375 981.277344 1372.109375 1002.890625 C 1372.109375 1024.636719 1373.308594 1038.125 1375.703125 1043.386719 C 1376.457031 1044.425781 1376.824219 1045.496094 1376.824219 1046.535156 C 1376.824219 1049.246094 1372.785156 1050.597656 1364.6875 1050.597656 C 1356.71875 1050.597656 1348.542969 1048.488281 1340.15625 1044.296875 C 1338.046875 1043.230469 1337.003906 1039.871094 1337.003906 1034.167969 Z M 1395.964844 1045.859375 C 1399.714844 1023.203125 1401.589844 995.964844 1401.589844 964.167969 C 1401.589844 932.5 1400.675781 911.953125 1398.878906 902.5 C 1398.878906 899.792969 1402.03125 898.4375 1408.332031 898.4375 C 1417.941406 898.4375 1424.324219 902.136719 1427.472656 909.480469 C 1427.628906 910.078125 1428.152344 910.363281 1429.035156 910.363281 C 1429.949219 910.363281 1430.546875 910.15625 1430.859375 909.714844 C 1437.449219 902.941406 1447.578125 899.582031 1461.222656 899.582031 C 1474.894531 899.582031 1485.675781 903.019531 1493.644531 909.921875 C 1501.589844 916.980469 1505.574219 927.109375 1505.574219 940.3125 C 1505.574219 948.253906 1504.894531 959.582031 1503.542969 974.296875 C 1502.1875 989.011719 1501.511719 999.949219 1501.511719 1007.160156 C 1501.511719 1024.113281 1504.375 1036.328125 1510.078125 1043.828125 C 1510.832031 1044.894531 1511.199219 1045.9375 1511.199219 1046.980469 C 1511.199219 1049.84375 1508.28125 1051.277344 1502.421875 1051.277344 C 1476.457031 1051.277344 1463.488281 1039.714844 1463.488281 1016.613281 C 1463.488281 1007.761719 1465.441406 995.441406 1469.324219 979.6875 C 1473.386719 963.933594 1475.417969 951.925781 1475.417969 943.699219 C 1475.417969 926.875 1468.4375 918.488281 1454.480469 918.488281 C 1447.890625 918.488281 1442.863281 920.496094 1439.402344 924.558594 C 1435.808594 928.464844 1433.855469 933.019531 1433.542969 938.28125 C 1433.097656 943.386719 1432.863281 953.074219 1432.863281 967.316406 C 1432.863281 989.21875 1433.621094 1008.28125 1435.128906 1024.480469 L 1435.574219 1031.222656 C 1435.574219 1037.238281 1431.746094 1041.824219 1424.089844 1044.972656 C 1416.433594 1048.253906 1409.84375 1049.921875 1404.296875 1049.921875 C 1398.75 1049.921875 1395.964844 1048.566406 1395.964844 1045.859375 Z M 1551.71875 963.488281 L 1551.925781 971.378906 C 1551.925781 972.707031 1552.761719 973.386719 1554.402344 973.386719 C 1561.171875 972.785156 1567.082031 971.066406 1572.1875 968.230469 C 1577.136719 965.363281 1580.886719 962.136719 1583.4375 958.542969 C 1588.542969 950.730469 1591.25 943.984375 1591.535156 938.28125 L 1592.003906 934.6875 C 1592.003906 923.28125 1587.5 917.578125 1578.488281 917.578125 C 1571.746094 917.578125 1566.25 920.496094 1562.058594 926.355469 C 1555.15625 935.652344 1551.71875 948.046875 1551.71875 963.488281 Z M 1620.339844 1005.574219 C 1620.339844 1013.542969 1618.699219 1020.519531 1615.390625 1026.511719 C 1612.109375 1032.5 1608.410156 1036.875 1604.375 1039.558594 C 1600.3125 1042.421875 1595.519531 1044.738281 1589.972656 1046.535156 C 1583.074219 1048.644531 1576.457031 1049.6875 1570.15625 1049.6875 C 1552.605469 1049.6875 1539.636719 1043.019531 1531.222656 1029.660156 C 1522.8125 1016.457031 1518.621094 999.660156 1518.621094 979.246094 C 1518.621094 958.699219 1523.800781 940.46875 1534.140625 924.558594 C 1544.503906 908.488281 1560.105469 900.46875 1580.964844 900.46875 C 1599.871094 900.46875 1612.707031 907.160156 1619.453125 920.496094 C 1622.160156 925.46875 1623.488281 930.183594 1623.488281 934.6875 C 1623.488281 939.191406 1623.28125 942.785156 1622.839844 945.496094 C 1622.371094 948.046875 1620.886719 951.925781 1618.332031 957.1875 C 1615.9375 962.449219 1612.628906 967.160156 1608.410156 971.378906 C 1604.21875 975.574219 1597.550781 979.609375 1588.386719 983.515625 C 1579.402344 987.265625 1568.800781 989.738281 1556.667969 990.9375 C 1555 990.9375 1554.191406 991.691406 1554.191406 993.203125 C 1554.191406 995.15625 1554.871094 997.917969 1556.199219 1001.535156 C 1557.550781 1005.285156 1559.0625 1008.359375 1560.703125 1010.753906 C 1565.363281 1016.746094 1572.1875 1019.765625 1581.199219 1019.765625 C 1590.183594 1019.765625 1597.839844 1016.746094 1604.140625 1010.753906 C 1607.605469 1007.605469 1610.363281 1003.777344 1612.472656 999.269531 C 1613.230469 997.472656 1614.347656 996.589844 1615.859375 996.589844 C 1617.214844 996.589844 1618.253906 997.785156 1619.011719 1000.183594 C 1619.894531 1002.421875 1620.339844 1004.21875 1620.339844 1005.574219 Z M 1733.332031 1000.390625 C 1733.332031 1009.402344 1731.613281 1017.292969 1728.152344 1024.035156 C 1724.714844 1030.78125 1720.808594 1035.730469 1716.457031 1038.878906 C 1711.953125 1042.03125 1706.691406 1044.582031 1700.703125 1046.535156 C 1692.734375 1048.933594 1685.46875 1050.128906 1678.878906 1050.128906 C 1665.207031 1050.128906 1653.878906 1047.527344 1644.894531 1042.265625 C 1635.886719 1036.875 1631.378906 1028.308594 1631.378906 1016.613281 C 1631.378906 1009.558594 1633.253906 1003.855469 1637.003906 999.503906 C 1642.863281 993.046875 1649.921875 989.816406 1658.152344 989.816406 C 1660.703125 989.816406 1661.980469 990.9375 1661.980469 993.203125 C 1661.980469 993.359375 1661.457031 995 1660.417969 998.152344 C 1659.503906 1001.144531 1659.0625 1004.972656 1659.0625 1009.636719 C 1659.0625 1014.269531 1660.859375 1018.332031 1664.453125 1021.769531 C 1668.203125 1025.390625 1672.707031 1027.1875 1677.96875 1027.1875 C 1683.230469 1027.1875 1687.421875 1026.277344 1690.574219 1024.480469 C 1693.722656 1022.683594 1695.886719 1020.441406 1697.109375 1017.734375 C 1699.035156 1013.984375 1700.027344 1010.441406 1700.027344 1007.160156 C 1700.027344 1000.988281 1696.953125 995.753906 1690.808594 991.40625 C 1684.792969 986.902344 1678.125 983.359375 1670.753906 980.832031 C 1663.410156 978.410156 1656.667969 974.21875 1650.519531 968.230469 C 1644.503906 962.371094 1641.511719 955.027344 1641.511719 946.171875 C 1641.511719 931.144531 1646.222656 919.816406 1655.675781 912.1875 C 1665.285156 904.6875 1678.253906 900.910156 1694.636719 900.910156 C 1701.824219 900.910156 1709.324219 901.902344 1717.136719 903.855469 C 1725.078125 905.808594 1729.0625 909.167969 1729.0625 913.984375 C 1729.0625 918.621094 1728.230469 922.96875 1726.589844 927.03125 C 1725.078125 931.09375 1723.125 933.097656 1720.730469 933.097656 C 1719.53125 933.097656 1718.699219 932.578125 1718.253906 931.535156 C 1717.8125 930.625 1717.058594 929.582031 1716.015625 928.386719 C 1714.949219 927.03125 1712.472656 925.390625 1708.566406 923.4375 C 1704.53125 921.484375 1701.066406 920.496094 1698.230469 920.496094 C 1695.363281 920.496094 1693.488281 920.496094 1692.605469 920.496094 C 1691.691406 920.652344 1690.050781 921.042969 1687.65625 921.640625 C 1685.390625 922.082031 1683.28125 922.839844 1681.355469 923.878906 C 1676.535156 926.589844 1674.140625 930.546875 1674.140625 935.808594 C 1674.140625 939.269531 1674.894531 941.746094 1676.378906 943.230469 C 1677.890625 944.894531 1679.011719 946.09375 1679.765625 946.847656 C 1680.675781 947.734375 1682.160156 948.722656 1684.269531 949.765625 C 1686.378906 950.964844 1687.863281 951.796875 1688.777344 952.238281 C 1689.53125 952.683594 1691.40625 953.59375 1694.402344 954.949219 C 1697.238281 956.300781 1699.113281 957.1875 1700.027344 957.628906 C 1722.238281 968.152344 1733.332031 982.394531 1733.332031 1000.390625 Z M 1733.332031 1000.390625 "/>
<path style=" stroke:none;fill-rule:nonzero;fill:rgb(0%,0%,0%);fill-opacity:1;" d="M 377.214844 985.78125 C 381.199219 985.78125 384.375 989.011719 384.375 992.941406 C 384.375 996.875 381.199219 1000.050781 377.214844 1000.050781 C 373.308594 1000.050781 370.128906 996.875 370.128906 992.941406 C 370.128906 989.011719 373.308594 985.78125 377.214844 985.78125 M 623.152344 838.75 C 621.640625 831.875 622.003906 829.113281 618.253906 822.527344 C 610.15625 808.203125 591.277344 799.714844 574.375 806.300781 C 556.589844 813.175781 549.425781 834.816406 556.925781 847.8125 C 566.457031 864.375 591.355469 861.71875 594.582031 842.890625 C 596.066406 833.90625 590.988281 830.027344 585.390625 831.824219 C 577.605469 834.296875 583.722656 843.644531 576.378906 844.347656 C 572.996094 844.636719 570.390625 842.550781 569.167969 840.652344 C 567.734375 838.332031 568.019531 834.53125 568.777344 831.640625 C 573.230469 813.800781 598.722656 813.800781 606.875 831.171875 C 613.855469 846.066406 605.027344 866.511719 587.527344 871.535156 C 558.777344 879.84375 529.792969 849.894531 542.628906 817.605469 C 546.902344 806.925781 553.699219 799.714844 562.8125 794.765625 C 592.550781 778.464844 635.441406 802.082031 637.472656 839.269531 C 638.152344 853.410156 633.203125 868.984375 626.796875 878.28125 C 615.988281 893.984375 605.128906 907.214844 601.613281 928.332031 C 600.808594 933.410156 599.480469 946.691406 601.144531 951.199219 C 603.644531 957.683594 614.660156 957.03125 614.792969 948.542969 C 614.949219 939.894531 614.503906 933.59375 616.691406 925.390625 C 624.246094 897.003906 642.449219 890.808594 650.105469 858.542969 C 655.027344 838.046875 649.296875 815.78125 636.535156 800.703125 C 635.285156 799.269531 635.050781 798.800781 633.542969 797.421875 C 632.449219 796.433594 631.457031 795.390625 630.417969 794.296875 C 628.125 791.925781 626.09375 790.546875 623.722656 788.515625 C 618.699219 785.234375 614.425781 782.449219 607.96875 779.921875 C 605.027344 778.777344 601.847656 777.785156 598.671875 777.082031 C 596.667969 776.613281 589.324219 775.9375 588.332031 775.363281 C 585.339844 775.886719 581.769531 775.417969 578.644531 775.703125 C 531.433594 779.972656 512.605469 833.152344 534.53125 863.984375 C 539.558594 871.015625 546.667969 878.125 556.121094 882.265625 C 590.183594 897.394531 625.753906 874.246094 623.152344 838.75 M 746.925781 1043.175781 C 767.527344 1049.816406 779.558594 1063.308594 784.167969 1078.332031 C 787.003906 1087.683594 786.875 1097.550781 784.21875 1106.71875 C 781.511719 1115.910156 776.199219 1124.453125 768.644531 1131.09375 C 753.515625 1144.324219 729.425781 1150.207031 698.828125 1138.933594 C 676.144531 1158.984375 645.441406 1170.988281 605.496094 1170.988281 C 512.707031 1170.988281 469.425781 1105.910156 461.902344 1026.199219 L 428.542969 1026.535156 L 439.347656 1058.878906 L 439.347656 1170.988281 L 319.84375 1127.394531 C 352.214844 1175.363281 401.824219 1209.375 458.855469 1222.136719 C 519.636719 1235.703125 583.386719 1223.800781 634.871094 1189.347656 C 637.761719 1187.214844 641.796875 1187.550781 644.269531 1190.15625 C 647.449219 1193.566406 646.640625 1198.933594 642.65625 1201.222656 C 516.875 1285.339844 348.464844 1232.34375 288.386719 1100.105469 C 273.359375 1067.082031 266.09375 1031.378906 266.71875 995.832031 L 266.667969 995.832031 L 266.71875 995.78125 C 267.082031 974.636719 270.183594 953.566406 276.144531 933.019531 C 306.902344 826.511719 409.660156 749.375 528.074219 759.011719 L 528.253906 759.011719 C 531.925781 759.296875 534.765625 762.371094 534.765625 766.121094 C 534.765625 770.050781 531.589844 773.230469 527.65625 773.230469 C 527.449219 773.230469 527.214844 773.230469 526.980469 773.152344 C 496.5625 770.675781 466.875 774.375 439.21875 783.203125 L 439.21875 892.605469 L 467.917969 924.582031 C 469.191406 926.042969 469.0625 928.28125 467.628906 929.609375 C 466.925781 930.183594 466.066406 930.46875 465.261719 930.46875 L 450.183594 930.46875 C 449.558594 933.203125 448.125 935.625 446.277344 937.527344 C 443.542969 940.234375 439.792969 941.902344 435.652344 941.902344 C 431.535156 941.902344 427.785156 940.234375 425.078125 937.527344 C 423.175781 935.625 421.796875 933.203125 421.09375 930.46875 L 406.09375 930.46875 C 404.0625 930.46875 402.5 928.933594 402.5 926.953125 C 402.5 925.910156 402.96875 925 403.671875 924.347656 L 432.136719 892.605469 L 432.136719 785.625 C 414.871094 791.824219 398.464844 800 383.230469 810 L 383.230469 836.847656 L 411.925781 868.828125 C 413.253906 870.3125 413.125 872.578125 411.640625 873.855469 C 410.988281 874.480469 410.128906 874.765625 409.269531 874.765625 L 394.246094 874.765625 C 393.566406 877.472656 392.160156 879.894531 390.261719 881.824219 C 387.550781 884.53125 383.800781 886.199219 379.714844 886.199219 C 375.546875 886.199219 371.796875 884.53125 369.089844 881.824219 C 367.1875 879.894531 365.78125 877.472656 365.15625 874.765625 L 350.078125 874.765625 C 348.125 874.765625 346.511719 873.152344 346.511719 871.199219 C 346.511719 870.207031 346.980469 869.21875 347.65625 868.59375 L 376.121094 836.847656 L 376.121094 814.894531 C 334.035156 844.972656 303.566406 888.464844 289.53125 937.707031 C 285.078125 953.410156 282.371094 969.402344 281.328125 985.441406 C 309.453125 969.324219 352.8125 961.589844 406.769531 961.589844 L 426.171875 1019.503906 L 461.378906 1019.089844 C 460.9375 1012.8125 460.703125 1006.457031 460.703125 1000.050781 C 460.703125 984.347656 496.144531 970.832031 547.003906 964.894531 L 547.292969 964.816406 C 554.792969 963.800781 561.71875 958.777344 564.792969 954.894531 C 574.84375 942.136719 575.050781 927.082031 565.261719 914.609375 C 561.796875 911.769531 560.46875 908.828125 553.878906 906.066406 C 523.046875 893.125 512.1875 930.027344 534.480469 938.386719 C 543.722656 941.902344 547.863281 936.953125 545.910156 932.449219 C 543.542969 927.136719 536.144531 932.03125 533.957031 924.425781 C 532.96875 921.015625 534.480469 918.464844 536.277344 916.980469 C 538.464844 915.128906 541.457031 915.285156 544.6875 915.519531 C 553.464844 918.359375 559.582031 922.8125 560.46875 932.839844 C 561.328125 943.074219 554.503906 950.574219 547.058594 952.8125 C 531.640625 957.5 511.5625 945.496094 508.800781 926.09375 C 506.015625 906.40625 520.910156 890.519531 538.464844 889.375 C 559.765625 887.941406 574.558594 900.753906 581.40625 913.386719 C 590.597656 930.417969 586.769531 951.328125 576.09375 963.28125 C 573.722656 966.144531 570.964844 968.699219 567.917969 970.9375 C 562.65625 974.765625 556.40625 977.527344 549.191406 978.90625 C 533.203125 980.753906 518.828125 983.359375 506.769531 986.589844 C 487.550781 991.667969 475.546875 996.457031 474.949219 999.816406 C 475.886719 1004.324219 480.390625 1008.410156 487.550781 1012.003906 C 511.613281 1001.378906 555.441406 994.269531 605.496094 994.269531 C 655.597656 994.269531 699.425781 1001.433594 723.488281 1012.003906 C 730.652344 1008.410156 735.15625 1004.324219 736.066406 999.816406 C 735.496094 996.457031 723.488281 991.667969 704.269531 986.589844 C 700 985.441406 695.441406 984.347656 690.574219 983.410156 L 690.652344 983.359375 C 689.425781 983.019531 688.230469 982.65625 687.058594 982.316406 L 687.003906 982.316406 C 684.246094 981.457031 681.457031 980.519531 678.644531 979.375 L 678.464844 979.324219 L 678.28125 979.191406 L 677.996094 979.089844 L 677.890625 979.089844 C 673.957031 977.472656 670.207031 975.675781 666.5625 973.542969 C 665.46875 972.917969 664.425781 972.214844 663.386719 971.535156 L 663.152344 971.40625 C 661.199219 970.128906 659.167969 968.75 657.160156 967.265625 C 653.359375 964.375 651.796875 962.863281 648.957031 959.011719 C 624.140625 924.816406 639.894531 876.277344 680.078125 872.109375 C 682.734375 871.824219 685.859375 872.238281 688.4375 871.640625 C 690.519531 872.917969 711.144531 872.628906 724.636719 893.125 C 726.09375 895.3125 727.527344 898.046875 728.699219 900.808594 C 736.300781 919.269531 732.734375 940.128906 716.746094 950.964844 C 706.277344 958.074219 691.613281 958.308594 680.703125 951.484375 C 669.269531 944.402344 660.285156 927.8125 666.691406 911.535156 C 668.019531 908.203125 669.636719 906.824219 671.589844 904.738281 C 679.035156 896.875 695.3125 897.003906 702.472656 909.816406 C 705.183594 914.660156 706.355469 923.957031 702.136719 927.8125 C 697.109375 932.394531 689.480469 928.410156 690.519531 920.546875 C 691.613281 912.527344 681.121094 910.910156 679.375 918.359375 C 676.144531 931.875 687.628906 943.828125 700.859375 942.136719 C 713.488281 940.46875 720.3125 928.410156 717.785156 913.671875 C 715.703125 901.277344 706.980469 892.082031 696.980469 888.28125 C 672.863281 878.984375 647.160156 898.855469 651.847656 929.558594 C 653.984375 943.878906 661.09375 952.65625 668.464844 959.0625 C 674.480469 964.375 680.363281 966.613281 686.824219 968.230469 C 725.15625 975.15625 750.339844 986.824219 750.339844 1000.050781 C 750.339844 1014.816406 749.191406 1029.246094 746.925781 1043.175781 M 690.753906 1127.160156 L 690.753906 1111.300781 C 690.753906 1108.984375 691.847656 1106.902344 693.59375 1105.625 C 693.878906 1105.417969 694.167969 1105.183594 694.503906 1105.050781 L 694.792969 1104.894531 L 694.921875 1104.816406 L 695.078125 1104.765625 L 712.863281 1096.640625 C 714.660156 1095.832031 716.746094 1096.640625 717.605469 1098.359375 C 718.410156 1100.15625 717.605469 1102.292969 715.808594 1103.097656 L 705.753906 1107.65625 C 714.425781 1112.109375 721.25 1112.265625 725.574219 1110.207031 C 727.238281 1109.324219 728.464844 1108.175781 729.140625 1106.847656 C 729.792969 1105.574219 730.027344 1104.140625 729.660156 1102.578125 C 728.855469 1098.59375 724.765625 1094.269531 716.378906 1091.433594 L 716.042969 1091.328125 L 715.652344 1091.199219 C 709.453125 1089.113281 698.4375 1085.417969 693.410156 1075.15625 C 687.761719 1076.484375 681.691406 1077.683594 675.285156 1078.671875 C 637.8125 1084.738281 589.660156 1085.363281 549.894531 1080.625 C 520.808594 1077.238281 495.964844 1070.703125 482.527344 1061.121094 C 488.308594 1082.472656 497.472656 1101.589844 510.519531 1116.953125 C 531.25 1141.484375 562.371094 1156.796875 605.496094 1156.796875 C 642.371094 1156.796875 670.363281 1145.652344 690.703125 1127.109375 Z M 691.222656 1068.386719 C 690.9375 1066.667969 690.753906 1064.871094 690.753906 1062.917969 C 690.753906 1059.792969 692.707031 1057.1875 695.496094 1056.222656 L 729.558594 1040.625 C 730.703125 1040.105469 731.847656 1039.949219 733.074219 1040 C 734.0625 1033.75 734.816406 1027.292969 735.3125 1020.78125 C 722.683594 1028.957031 702.996094 1034.871094 679.792969 1038.621094 C 657.265625 1042.238281 631.355469 1044.035156 605.496094 1044.035156 C 579.6875 1044.035156 553.75 1042.238281 531.25 1038.621094 C 508.046875 1034.871094 488.359375 1028.957031 475.703125 1020.78125 C 476.40625 1029.714844 477.550781 1038.4375 479.167969 1046.875 C 483.621094 1060.207031 513.230469 1069.140625 550.753906 1073.59375 C 589.949219 1078.28125 637.34375 1077.628906 674.191406 1071.691406 C 680.128906 1070.703125 685.859375 1069.609375 691.222656 1068.386719 M 770.597656 1082.472656 C 766.667969 1069.609375 754.84375 1058.230469 733.488281 1054.425781 L 705.703125 1067.136719 C 708.074219 1073.699219 715.9375 1076.300781 720.128906 1077.761719 L 720.546875 1077.863281 L 720.9375 1077.96875 C 734.738281 1082.65625 741.847656 1091.328125 743.566406 1099.792969 C 744.503906 1104.53125 743.878906 1109.21875 741.746094 1113.308594 C 739.714844 1117.292969 736.300781 1120.703125 731.847656 1122.890625 C 725.15625 1126.199219 715.808594 1126.875 704.949219 1122.785156 L 704.949219 1126.015625 C 729.324219 1134.609375 747.917969 1130.339844 759.269531 1120.417969 C 764.816406 1115.625 768.644531 1109.375 770.597656 1102.8125 C 772.550781 1096.171875 772.628906 1089.0625 770.597656 1082.472656 M 585.859375 961.953125 C 592.265625 961.71875 598.855469 961.589844 605.496094 961.589844 C 618.59375 961.589844 631.222656 962.058594 643.253906 962.917969 C 648.621094 969.503906 654.894531 974.714844 661.71875 978.855469 C 644.582031 976.902344 625.574219 975.808594 605.496094 975.808594 C 593.878906 975.808594 582.578125 976.199219 571.824219 976.902344 L 572.058594 976.667969 C 577.65625 972.628906 582.214844 967.605469 585.859375 961.953125 M 457.292969 923.386719 L 435.652344 899.246094 L 413.984375 923.386719 L 457.292969 923.386719 M 441.199219 932.5 C 441.824219 931.925781 442.292969 931.222656 442.683594 930.46875 L 428.671875 930.46875 C 429.011719 931.222656 429.53125 931.925781 430.105469 932.5 C 431.535156 933.933594 433.515625 934.816406 435.652344 934.816406 C 437.839844 934.816406 439.792969 933.933594 441.199219 932.5 M 364.6875 867.65625 L 401.355469 867.65625 L 379.714844 843.488281 L 358.046875 867.65625 Z M 385.234375 876.796875 C 385.832031 876.222656 386.355469 875.519531 386.691406 874.765625 L 372.65625 874.765625 C 373.074219 875.519531 373.515625 876.222656 374.167969 876.796875 C 375.546875 878.175781 377.5 879.089844 379.714844 879.089844 C 381.847656 879.089844 383.800781 878.175781 385.234375 876.796875 M 281.457031 1015.859375 C 282.03125 1023.828125 282.996094 1031.796875 284.402344 1039.714844 L 425.128906 1091.144531 L 425.128906 1068.332031 Z M 286.015625 1047.839844 C 287.785156 1056.222656 290.050781 1064.480469 292.8125 1072.683594 L 425.128906 1120.988281 L 425.128906 1098.699219 Z M 295.9375 1081.328125 C 297.550781 1085.652344 299.402344 1089.921875 301.300781 1094.191406 C 303.4375 1098.878906 305.753906 1103.488281 308.175781 1107.996094 L 425.128906 1150.730469 L 425.128906 1128.488281 Z M 281.902344 1000.910156 L 422.136719 1052.109375 L 396.613281 975.910156 C 370.417969 976.433594 339.972656 978.800781 313.722656 987.003906 C 302.109375 990.625 292.65625 995.597656 281.902344 1000.910156 M 337.5 992.941406 C 341.433594 992.941406 344.609375 996.121094 344.609375 1000.050781 C 344.609375 1003.957031 341.433594 1007.136719 337.5 1007.136719 C 333.566406 1007.136719 330.390625 1003.957031 330.390625 1000.050781 C 330.390625 996.121094 333.566406 992.941406 337.5 992.941406 M 381.042969 1008.75 C 384.949219 1008.75 388.125 1012.003906 388.125 1015.859375 C 388.125 1019.792969 384.949219 1023.019531 381.042969 1023.019531 C 377.109375 1023.019531 373.933594 1019.792969 373.933594 1015.859375 C 373.933594 1012.003906 377.109375 1008.75 381.042969 1008.75 "/>
<path style=" stroke:none;fill-rule:nonzero;fill:rgb(3.529412%,3.921569%,20.784314%);fill-opacity:1;" d="M 879.035156 1137.890625 L 882.683594 1137.890625 L 882.683594 1121.902344 L 888.800781 1121.902344 L 888.800781 1118.59375 C 883.203125 1118.59375 878.488281 1118.59375 872.917969 1118.59375 L 872.917969 1121.902344 L 879.035156 1121.902344 Z M 920.105469 1137.890625 L 924.089844 1137.890625 L 915.417969 1118.59375 L 911.433594 1118.59375 L 902.8125 1137.890625 L 906.746094 1137.890625 L 908.386719 1134.246094 L 918.464844 1134.246094 Z M 917.003906 1130.859375 L 909.84375 1130.859375 L 913.4375 1122.65625 Z M 954.011719 1121.769531 C 952.550781 1118.800781 949.425781 1117.941406 946.433594 1117.941406 C 942.863281 1117.96875 938.957031 1119.582031 938.957031 1123.566406 C 938.957031 1127.890625 942.578125 1128.933594 946.535156 1129.402344 C 949.113281 1129.6875 950.988281 1130.441406 950.988281 1132.238281 C 950.988281 1134.324219 948.855469 1135.128906 946.5625 1135.128906 C 944.21875 1135.128906 942.003906 1134.191406 941.121094 1132.082031 L 938.097656 1133.644531 C 939.53125 1137.1875 942.578125 1138.386719 946.511719 1138.386719 C 950.808594 1138.386719 954.609375 1136.535156 954.609375 1132.238281 C 954.609375 1127.628906 950.859375 1126.589844 946.847656 1126.09375 C 944.503906 1125.832031 942.550781 1125.363281 942.550781 1123.671875 C 942.550781 1122.238281 943.828125 1121.09375 946.535156 1121.09375 C 948.621094 1121.09375 950.441406 1122.160156 951.121094 1123.253906 Z M 976.199219 1137.890625 L 979.84375 1137.890625 L 979.84375 1121.902344 L 985.964844 1121.902344 L 985.964844 1118.59375 C 980.339844 1118.59375 975.652344 1118.59375 970.078125 1118.59375 L 970.078125 1121.902344 L 976.199219 1121.902344 Z M 1016.300781 1134.324219 L 1005.496094 1134.324219 L 1005.496094 1129.972656 L 1015.9375 1129.972656 L 1015.9375 1126.5625 L 1005.496094 1126.5625 L 1005.496094 1122.136719 L 1016.300781 1122.136719 L 1016.300781 1118.59375 L 1001.875 1118.59375 C 1001.875 1125.027344 1001.875 1131.484375 1001.875 1137.890625 L 1016.300781 1137.890625 Z M 1057.238281 1137.890625 L 1060.886719 1137.890625 L 1060.886719 1121.902344 L 1067.003906 1121.902344 L 1067.003906 1118.59375 C 1061.40625 1118.59375 1056.691406 1118.59375 1051.144531 1118.59375 L 1051.144531 1121.902344 L 1057.238281 1121.902344 Z M 1099.738281 1137.917969 L 1099.738281 1118.621094 L 1096.144531 1118.621094 L 1096.144531 1126.746094 L 1086.640625 1126.746094 L 1086.640625 1118.621094 L 1082.996094 1118.621094 L 1082.996094 1137.917969 L 1086.640625 1137.917969 L 1086.640625 1130.128906 L 1096.144531 1130.128906 L 1096.144531 1137.917969 Z M 1131.328125 1134.324219 L 1120.496094 1134.324219 L 1120.496094 1129.972656 L 1130.9375 1129.972656 L 1130.9375 1126.5625 L 1120.496094 1126.5625 L 1120.496094 1122.136719 L 1131.328125 1122.136719 L 1131.328125 1118.59375 L 1116.875 1118.59375 C 1116.875 1125.027344 1116.875 1131.484375 1116.875 1137.890625 L 1131.328125 1137.890625 Z M 1176.328125 1118.203125 C 1169.660156 1118.203125 1166.40625 1123.308594 1166.40625 1128.386719 C 1166.40625 1133.464844 1169.558594 1138.332031 1176.328125 1138.332031 C 1183.097656 1138.332031 1186.171875 1133.359375 1186.222656 1128.359375 C 1186.277344 1123.308594 1182.96875 1118.203125 1176.328125 1118.203125 Z M 1176.328125 1121.511719 C 1180.886719 1121.511719 1182.707031 1125.15625 1182.628906 1128.410156 C 1182.605469 1131.589844 1180.886719 1135 1176.328125 1135 C 1171.796875 1135 1170.078125 1131.613281 1170 1128.4375 C 1169.921875 1125.207031 1171.796875 1121.511719 1176.328125 1121.511719 Z M 1217.214844 1132.941406 C 1215.9375 1134.246094 1214.035156 1134.921875 1212.371094 1134.921875 C 1207.578125 1134.921875 1205.753906 1131.589844 1205.703125 1128.386719 C 1205.675781 1125.15625 1207.707031 1121.691406 1212.371094 1121.691406 C 1214.035156 1121.691406 1215.753906 1122.265625 1217.003906 1123.515625 L 1219.425781 1121.171875 C 1217.472656 1119.21875 1214.972656 1118.203125 1212.371094 1118.203125 C 1205.363281 1118.203125 1202.109375 1123.359375 1202.136719 1128.386719 C 1202.160156 1133.410156 1205.207031 1138.332031 1212.371094 1138.332031 C 1215.128906 1138.332031 1217.707031 1137.421875 1219.6875 1135.46875 Z M 1249.894531 1134.324219 L 1239.0625 1134.324219 L 1239.0625 1129.972656 L 1249.503906 1129.972656 L 1249.503906 1126.5625 L 1239.0625 1126.5625 L 1239.0625 1122.136719 L 1249.894531 1122.136719 L 1249.894531 1118.59375 L 1235.441406 1118.59375 C 1235.441406 1125.027344 1235.441406 1131.484375 1235.441406 1137.890625 L 1249.894531 1137.890625 Z M 1281.824219 1137.890625 L 1285.78125 1137.890625 L 1277.136719 1118.59375 L 1273.152344 1118.59375 L 1264.480469 1137.890625 L 1268.4375 1137.890625 L 1270.105469 1134.246094 L 1280.183594 1134.246094 Z M 1278.722656 1130.859375 L 1271.5625 1130.859375 L 1275.128906 1122.65625 Z M 1313.878906 1130.574219 L 1304.425781 1118.59375 L 1301.484375 1118.59375 L 1301.484375 1137.890625 L 1305.128906 1137.890625 L 1305.128906 1124.871094 L 1315.261719 1137.917969 L 1315.261719 1137.890625 L 1317.527344 1137.890625 L 1317.527344 1118.59375 L 1313.878906 1118.59375 Z M 1338.386719 1136.457031 C 1338.386719 1133.957031 1334.480469 1133.828125 1334.480469 1136.378906 C 1334.480469 1137.214844 1335 1137.734375 1335.78125 1137.863281 L 1335.234375 1140.597656 L 1337.160156 1140.597656 C 1338.410156 1136.71875 1338.386719 1136.796875 1338.386719 1136.457031 Z M 1378.28125 1137.890625 L 1378.28125 1130.753906 L 1387.941406 1130.753906 L 1387.941406 1127.394531 L 1378.28125 1127.394531 L 1378.28125 1122.136719 L 1388.488281 1122.136719 L 1388.488281 1118.621094 L 1374.636719 1118.621094 L 1374.636719 1137.890625 Z M 1419.167969 1134.324219 L 1408.332031 1134.324219 L 1408.332031 1129.972656 L 1418.800781 1129.972656 L 1418.800781 1126.5625 L 1408.332031 1126.5625 L 1408.332031 1122.136719 L 1419.167969 1122.136719 L 1419.167969 1118.59375 L 1404.738281 1118.59375 C 1404.738281 1125.027344 1404.738281 1131.484375 1404.738281 1137.890625 L 1419.167969 1137.890625 Z M 1450.15625 1134.324219 L 1439.324219 1134.324219 L 1439.324219 1129.972656 L 1449.765625 1129.972656 L 1449.765625 1126.5625 L 1439.324219 1126.5625 L 1439.324219 1122.136719 L 1450.15625 1122.136719 L 1450.15625 1118.59375 L 1435.703125 1118.59375 C 1435.703125 1125.027344 1435.703125 1131.484375 1435.703125 1137.890625 L 1450.15625 1137.890625 Z M 1466.746094 1118.59375 L 1466.746094 1137.890625 L 1480.285156 1137.890625 L 1480.285156 1134.53125 L 1470.363281 1134.53125 L 1470.363281 1118.59375 Z M 1520.988281 1137.890625 L 1524.609375 1137.890625 L 1524.609375 1121.902344 L 1530.730469 1121.902344 L 1530.730469 1118.59375 C 1525.128906 1118.59375 1520.417969 1118.59375 1514.871094 1118.59375 L 1514.871094 1121.902344 L 1520.988281 1121.902344 Z M 1563.488281 1137.917969 L 1563.488281 1118.621094 L 1559.871094 1118.621094 L 1559.871094 1126.746094 L 1550.390625 1126.746094 L 1550.390625 1118.621094 L 1546.746094 1118.621094 L 1546.746094 1137.917969 L 1550.390625 1137.917969 L 1550.390625 1130.128906 L 1559.871094 1130.128906 L 1559.871094 1137.917969 Z M 1595.050781 1134.324219 L 1584.21875 1134.324219 L 1584.21875 1129.972656 L 1594.660156 1129.972656 L 1594.660156 1126.5625 L 1584.21875 1126.5625 L 1584.21875 1122.136719 L 1595.050781 1122.136719 L 1595.050781 1118.59375 L 1580.597656 1118.59375 C 1580.597656 1125.027344 1580.597656 1131.484375 1580.597656 1137.890625 L 1595.050781 1137.890625 Z M 1649.480469 1118.59375 L 1645.417969 1118.59375 L 1639.558594 1133.621094 L 1633.75 1118.59375 L 1629.660156 1118.59375 L 1637.707031 1137.96875 L 1641.484375 1137.96875 Z M 1669.140625 1137.890625 L 1669.140625 1118.59375 L 1665.546875 1118.59375 L 1665.546875 1137.890625 Z M 1689.816406 1129.558594 L 1695.390625 1129.558594 C 1696.875 1129.558594 1698.984375 1130.441406 1698.984375 1132.1875 C 1698.984375 1134.011719 1696.875 1134.503906 1695.390625 1134.503906 L 1689.816406 1134.503906 Z M 1689.816406 1121.902344 L 1695.390625 1121.902344 C 1697.707031 1121.902344 1698.410156 1123.410156 1698.410156 1124.269531 C 1698.410156 1125.363281 1697.65625 1126.328125 1695.390625 1126.328125 L 1689.816406 1126.328125 Z M 1695.390625 1118.59375 C 1692.316406 1118.59375 1689.246094 1118.59375 1686.222656 1118.59375 L 1686.222656 1137.890625 C 1689.296875 1137.890625 1692.316406 1137.890625 1695.390625 1137.890625 C 1699.375 1137.890625 1702.605469 1136.511719 1702.605469 1132.214844 C 1702.605469 1131.015625 1701.769531 1128.59375 1699.503906 1127.917969 C 1701.300781 1127.136719 1702.003906 1125.675781 1702.003906 1124.191406 C 1702.003906 1120.3125 1699.167969 1118.59375 1695.390625 1118.59375 Z M 1733.332031 1134.324219 L 1722.5 1134.324219 L 1722.5 1129.972656 L 1732.941406 1129.972656 L 1732.941406 1126.5625 L 1722.5 1126.5625 L 1722.5 1122.136719 L 1733.332031 1122.136719 L 1733.332031 1118.59375 L 1718.878906 1118.59375 C 1718.878906 1125.027344 1718.878906 1131.484375 1718.878906 1137.890625 L 1733.332031 1137.890625 Z M 1733.332031 1134.324219 "/>
</g>
</svg>
